<mxfile host="app.diagrams.net" modified="2022-09-20T19:08:02.929Z" agent="5.0 (Windows NT 10.0; Win64; x64) AppleWebKit/537.36 (KHTML, like Gecko) Chrome/104.0.5112.102 Safari/537.36" etag="ZqdAPk-HeGHmz6ECS36K" version="20.3.3" type="github">
  <diagram id="C5RBs43oDa-KdzZeNtuy" name="Page-1">
    <mxGraphModel dx="1691" dy="1989" grid="1" gridSize="10" guides="1" tooltips="1" connect="1" arrows="1" fold="1" page="1" pageScale="1" pageWidth="827" pageHeight="1169" math="0" shadow="0">
      <root>
        <mxCell id="WIyWlLk6GJQsqaUBKTNV-0" />
        <mxCell id="WIyWlLk6GJQsqaUBKTNV-1" parent="WIyWlLk6GJQsqaUBKTNV-0" />
        <mxCell id="2IyTGgYr1xREOhWiROtr-2" value="" style="edgeStyle=orthogonalEdgeStyle;rounded=0;orthogonalLoop=1;jettySize=auto;html=1;" edge="1" parent="WIyWlLk6GJQsqaUBKTNV-1" source="2IyTGgYr1xREOhWiROtr-0" target="2IyTGgYr1xREOhWiROtr-1">
          <mxGeometry relative="1" as="geometry" />
        </mxCell>
        <mxCell id="2IyTGgYr1xREOhWiROtr-0" value="INICIO" style="ellipse;whiteSpace=wrap;html=1;fillColor=#dae8fc;strokeColor=#6c8ebf;" vertex="1" parent="WIyWlLk6GJQsqaUBKTNV-1">
          <mxGeometry x="208.13" y="-30" width="110" height="60" as="geometry" />
        </mxCell>
        <mxCell id="2IyTGgYr1xREOhWiROtr-5" value="" style="edgeStyle=orthogonalEdgeStyle;rounded=0;orthogonalLoop=1;jettySize=auto;html=1;" edge="1" parent="WIyWlLk6GJQsqaUBKTNV-1" source="2IyTGgYr1xREOhWiROtr-1" target="2IyTGgYr1xREOhWiROtr-3">
          <mxGeometry relative="1" as="geometry" />
        </mxCell>
        <mxCell id="2IyTGgYr1xREOhWiROtr-1" value="Preguntar y leer edad" style="shape=parallelogram;perimeter=parallelogramPerimeter;whiteSpace=wrap;html=1;fixedSize=1;fillColor=#fff2cc;strokeColor=#d6b656;" vertex="1" parent="WIyWlLk6GJQsqaUBKTNV-1">
          <mxGeometry x="180.63" y="60" width="165" height="40" as="geometry" />
        </mxCell>
        <mxCell id="2IyTGgYr1xREOhWiROtr-6" style="edgeStyle=orthogonalEdgeStyle;rounded=0;orthogonalLoop=1;jettySize=auto;html=1;entryX=0.5;entryY=0;entryDx=0;entryDy=0;" edge="1" parent="WIyWlLk6GJQsqaUBKTNV-1" source="2IyTGgYr1xREOhWiROtr-3" target="2IyTGgYr1xREOhWiROtr-4">
          <mxGeometry relative="1" as="geometry" />
        </mxCell>
        <mxCell id="2IyTGgYr1xREOhWiROtr-10" style="edgeStyle=orthogonalEdgeStyle;rounded=0;orthogonalLoop=1;jettySize=auto;html=1;entryX=0.5;entryY=0;entryDx=0;entryDy=0;" edge="1" parent="WIyWlLk6GJQsqaUBKTNV-1" source="2IyTGgYr1xREOhWiROtr-3" target="2IyTGgYr1xREOhWiROtr-8">
          <mxGeometry relative="1" as="geometry" />
        </mxCell>
        <mxCell id="2IyTGgYr1xREOhWiROtr-3" value="Es mayor de 18 años&amp;nbsp;" style="rhombus;whiteSpace=wrap;html=1;fillColor=#ffe6cc;strokeColor=#d79b00;" vertex="1" parent="WIyWlLk6GJQsqaUBKTNV-1">
          <mxGeometry x="165" y="130" width="196.25" height="60" as="geometry" />
        </mxCell>
        <mxCell id="2IyTGgYr1xREOhWiROtr-4" value="Es menor de edad" style="whiteSpace=wrap;html=1;aspect=fixed;fillColor=#d5e8d4;strokeColor=#82b366;" vertex="1" parent="WIyWlLk6GJQsqaUBKTNV-1">
          <mxGeometry x="20" y="210" width="80" height="80" as="geometry" />
        </mxCell>
        <mxCell id="2IyTGgYr1xREOhWiROtr-7" value="No" style="text;html=1;align=center;verticalAlign=middle;resizable=0;points=[];autosize=1;strokeColor=none;fillColor=none;" vertex="1" parent="WIyWlLk6GJQsqaUBKTNV-1">
          <mxGeometry x="120" y="135" width="40" height="30" as="geometry" />
        </mxCell>
        <mxCell id="2IyTGgYr1xREOhWiROtr-12" value="" style="edgeStyle=orthogonalEdgeStyle;rounded=0;orthogonalLoop=1;jettySize=auto;html=1;" edge="1" parent="WIyWlLk6GJQsqaUBKTNV-1" source="2IyTGgYr1xREOhWiROtr-8" target="2IyTGgYr1xREOhWiROtr-11">
          <mxGeometry relative="1" as="geometry" />
        </mxCell>
        <mxCell id="2IyTGgYr1xREOhWiROtr-8" value="Es mayor de edad" style="whiteSpace=wrap;html=1;aspect=fixed;fillColor=#d5e8d4;strokeColor=#82b366;" vertex="1" parent="WIyWlLk6GJQsqaUBKTNV-1">
          <mxGeometry x="414" y="200" width="80" height="80" as="geometry" />
        </mxCell>
        <mxCell id="2IyTGgYr1xREOhWiROtr-18" style="edgeStyle=orthogonalEdgeStyle;rounded=0;orthogonalLoop=1;jettySize=auto;html=1;entryX=0.5;entryY=0;entryDx=0;entryDy=0;" edge="1" parent="WIyWlLk6GJQsqaUBKTNV-1" source="2IyTGgYr1xREOhWiROtr-11" target="2IyTGgYr1xREOhWiROtr-16">
          <mxGeometry relative="1" as="geometry">
            <mxPoint x="330" y="380" as="targetPoint" />
          </mxGeometry>
        </mxCell>
        <mxCell id="2IyTGgYr1xREOhWiROtr-11" value="Es mayor de 60 años" style="rhombus;whiteSpace=wrap;html=1;fillColor=#ffe6cc;strokeColor=#d79b00;" vertex="1" parent="WIyWlLk6GJQsqaUBKTNV-1">
          <mxGeometry x="355.87" y="320" width="196.25" height="60" as="geometry" />
        </mxCell>
        <mxCell id="2IyTGgYr1xREOhWiROtr-15" value="Si" style="text;html=1;align=center;verticalAlign=middle;resizable=0;points=[];autosize=1;strokeColor=none;fillColor=none;" vertex="1" parent="WIyWlLk6GJQsqaUBKTNV-1">
          <mxGeometry x="366.25" y="135" width="30" height="30" as="geometry" />
        </mxCell>
        <mxCell id="2IyTGgYr1xREOhWiROtr-16" value="" style="whiteSpace=wrap;html=1;aspect=fixed;" vertex="1" parent="WIyWlLk6GJQsqaUBKTNV-1">
          <mxGeometry x="223.13" y="400" width="80" height="80" as="geometry" />
        </mxCell>
        <mxCell id="2IyTGgYr1xREOhWiROtr-17" value="" style="whiteSpace=wrap;html=1;aspect=fixed;" vertex="1" parent="WIyWlLk6GJQsqaUBKTNV-1">
          <mxGeometry x="550" y="400" width="80" height="80" as="geometry" />
        </mxCell>
      </root>
    </mxGraphModel>
  </diagram>
</mxfile>
